Coordinates
version=1
nRows=11
nColumns=36
inDegrees=yes

Units are S.I. units (second, meters, Newtons, ...)
If the header above contains a line with 'inDegrees', this indicates whether rotational values are in degrees (yes) or radians (no).

endheader
time	pelvis_tilt	pelvis_list	pelvis_rotation	pelvis_tx	pelvis_ty	pelvis_tz	hip_flexion_r	hip_adduction_r	hip_rotation_r	knee_angle_r	knee_angle_r_beta	ankle_angle_r	subtalar_angle_r	mtp_angle_r	hip_flexion_l	hip_adduction_l	hip_rotation_l	knee_angle_l	knee_angle_l_beta	ankle_angle_l	subtalar_angle_l	mtp_angle_l	lumbar_extension	lumbar_bending	lumbar_rotation	arm_flex_r	arm_add_r	arm_rot_r	elbow_flex_r	pro_sup_r	arm_flex_l	arm_add_l	arm_rot_l	elbow_flex_l	pro_sup_l
      1.89166670	    -15.49042300	      1.16883468	      2.21552805	     -0.93996636	      1.11407618	     -0.09995670	     44.60701814	     -3.11554602	      2.62230978	     70.18601212	      1.22497700	     30.52864465	    -19.53312826	     -7.49999987	     44.40554615	      0.53458052	      0.99793351	     65.44602173	      1.14224856	     28.00993841	    -20.01486238	     -7.49999987	    -43.18442504	      1.87041260	     -0.37597353	     27.05280076	    -14.86787908	      2.17386336	     46.19691279	     85.81801124	     36.17889608	    -12.00000231	     12.11688539	     49.00409934	     82.19815246
      1.89583330	    -15.82582806	      1.18614897	      2.32799012	     -0.93695398	      1.11166954	     -0.10031182	     44.76396115	     -3.32274131	      2.51230984	     70.43216275	      1.22927314	     30.73939326	    -19.30958953	     -7.49999987	     44.70370090	      0.74071894	      1.04113610	     65.73267861	      1.14725167	     28.36094311	    -19.59912576	     -7.49999987	    -42.69057476	      2.01557288	     -0.51019381	     27.58131601	    -15.10595992	      2.05894878	     47.27120460	     84.79827030	     36.84962484	    -11.97244588	     12.01021593	     49.96416882	     81.28591347
      1.90000000	    -15.56465651	      1.22431210	      2.66580070	     -0.93841469	      1.11510212	     -0.10081873	     44.36116373	     -3.84671011	      2.02053871	     70.70317601	      1.23400321	     30.66603443	    -18.96632370	     -7.49999987	     44.20081902	      0.95088822	      1.06410318	     65.71295078	      1.14690735	     28.47079639	    -19.10782221	     -7.49999987	    -42.74691069	      2.29471182	     -0.24968540	     27.94036439	    -15.35802686	      0.47566379	     48.37914817	     91.65470422	     38.66278618	    -11.41003843	     12.34234131	     48.92365053	     86.07873295
      1.90416670	    -15.54411468	      1.16355767	      2.79919070	     -0.93778159	      1.11447049	     -0.10319078	     44.39562455	     -4.08518441	      1.73241297	     70.90005458	      1.23743939	     30.60736031	    -18.41246929	     -7.49999987	     44.18018663	      1.03820297	      1.12958113	     66.12334343	      1.15407006	     27.94378330	    -19.87962419	     -7.49999987	    -42.80003260	      2.59319140	     -0.35803067	     28.89889055	    -15.68673550	      0.86483261	     49.32182807	     90.63076744	     39.68051382	    -11.24955198	     12.11379351	     49.32325052	     84.91564391
      1.90833330	    -15.57737693	      1.16914269	      2.97418168	     -0.93297238	      1.11333105	     -0.10420514	     44.35985839	     -4.34769414	      1.63060787	     71.27894343	      1.24405225	     30.42736296	    -18.39798826	     -7.49999987	     44.07535006	      1.03778069	      0.99843712	     66.37690737	      1.15849558	     27.70634423	    -20.01597142	     -7.49999987	    -42.54996186	      2.78744332	     -0.45136182	     29.72002889	    -15.84449383	      0.85890503	     49.64071147	     90.65707839	     40.36020745	    -10.98631142	     12.10303391	     49.49817081	     84.92246787
      1.91250000	    -15.29104488	      1.20651006	      3.24892378	     -0.92683209	      1.11396886	     -0.10450623	     43.93153641	     -4.73745462	      1.42866969	     71.56319815	      1.24901343	     30.01133943	    -18.60379112	     -7.49999987	     43.41351552	      1.25688780	      1.05831664	     66.46609265	      1.16005216	     26.32937379	    -22.53414990	     -7.49999987	    -42.71540584	      3.05384191	     -0.65070677	     30.16570629	    -16.23383409	      1.45837709	     50.72729064	     90.90440614	     41.08468219	    -10.82359377	     11.97963706	     49.41352533	     84.87983547
      1.91666670	    -15.30335379	      1.10865258	      3.33886345	     -0.92400027	      1.11232381	     -0.10582354	     43.76225469	     -4.88640223	      1.23749446	     71.92614405	      1.25534803	     29.83667731	    -18.55977006	     -7.49999987	     43.12770316	      1.43854670	      1.32664954	     66.19211623	      1.15527037	     26.70538054	    -22.22066089	     -7.49999987	    -42.55799750	      3.26392803	     -0.73981758	     30.60327254	    -16.42577629	      1.59699862	     51.60740789	     89.77711643	     41.52058365	    -10.78635057	     11.91407888	     49.97499748	     83.84139699
      1.92083330	    -15.02712281	      1.04988880	      3.37875162	     -0.92071466	      1.11092440	     -0.10603522	     43.39387635	     -4.87824945	      1.17288912	     72.27192373	      1.26138303	     29.83655801	    -18.55699323	     -7.49999987	     42.49439654	      1.56722158	      1.52896014	     66.05446504	      1.15286790	     27.19712908	    -22.17871994	     -7.49999987	    -42.73136143	      3.41495766	     -0.83891316	     31.17351727	    -16.69086736	      2.08740816	     52.49258269	     89.17632599	     42.12784380	    -10.79109302	     11.95857409	     50.13261766	     83.06560987
      1.92500000	    -15.28985778	      0.96220958	      3.47779701	     -0.91885159	      1.11163135	     -0.10520795	     43.48267806	     -4.75422274	      1.12859679	     72.52032122	      1.26571838	     30.18670014	    -18.68079125	     -7.49999987	     42.64800636	      1.45061783	      1.57563471	     66.41798688	      1.15921255	     27.74038786	    -22.39623717	     -7.49999987	    -42.26983590	      3.52466638	     -0.81802744	     31.35747272	    -16.80686352	      2.09039347	     53.44703750	     87.86913992	     42.20918587	    -10.78639723	     11.92256758	     51.08985837	     81.89917630
      1.92916670	    -14.59070762	      0.58351805	      3.57048997	     -0.91388242	      1.11165841	     -0.10702330	     42.23064987	     -4.41923458	      0.73777207	     72.56792713	      1.26654926	     29.82754043	    -19.16716544	     -7.49999987	     41.97668200	      1.28123383	      2.08194248	     67.17282861	      1.17238703	     26.81777002	    -24.33621945	     -7.49999987	    -42.81499910	      4.09063598	     -0.60296172	     31.99522235	    -17.27097703	      2.70447241	     54.44902913	     87.47585045	     42.73862916	    -10.62830347	     11.95973178	     51.49214299	     81.05256577
      1.93333330	    -14.31920598	      0.54345551	      3.59659054	     -0.91253814	      1.11320600	     -0.10544052	     41.61991164	     -4.28233459	      0.57953736	     72.63583270	      1.26773444	     29.88839768	    -19.36410859	     -7.49999987	     41.79222742	      1.30027460	      2.09446444	     67.88996348	      1.18490339	     25.99740025	    -25.89626932	     -7.49999987	    -42.95820191	      4.05366045	     -0.57047642	     32.59918667	    -17.57133623	      3.34663467	     55.28200594	     87.10412592	     43.50926397	    -10.59290854	     12.13049449	     51.78785440	     80.36730803
